<svg width="1400" height="1400" viewBox="0 0 1400 1400" fill="none" xmlns="http://www.w3.org/2000/svg">
  <rect width="1400" height="1400" fill="#050505"/>
  <circle cx="700" cy="700" r="430" fill="url(#coreGlow)"/>
  <circle cx="700" cy="700" r="330" stroke="white" stroke-opacity="0.10" stroke-width="2"/>
  <circle cx="700" cy="700" r="450" stroke="white" stroke-opacity="0.06" stroke-width="2"/>
  <g filter="url(#shadow)">
    <rect x="460" y="380" width="480" height="640" rx="78" fill="url(#batteryBody)" stroke="white" stroke-opacity="0.20" stroke-width="2"/>
    <rect x="595" y="330" width="210" height="72" rx="28" fill="#EAEAF0" fill-opacity="0.90"/>
    <rect x="512" y="452" width="376" height="500" rx="48" fill="#050507" stroke="white" stroke-opacity="0.12"/>
  </g>
  <path d="M565 600C638 520 762 520 835 600" stroke="white" stroke-opacity="0.70" stroke-width="7" stroke-linecap="round"/>
  <path d="M565 700C640 774 760 774 835 700" stroke="white" stroke-opacity="0.32" stroke-width="7" stroke-linecap="round"/>
  <path d="M565 795C640 836 760 836 835 795" stroke="white" stroke-opacity="0.18" stroke-width="6" stroke-linecap="round"/>
  <circle cx="603" cy="568" r="18" fill="white"/>
  <circle cx="700" cy="535" r="18" fill="white" fill-opacity="0.82"/>
  <circle cx="798" cy="568" r="18" fill="white" fill-opacity="0.62"/>
  <circle cx="602" cy="740" r="16" fill="white" fill-opacity="0.48"/>
  <circle cx="700" cy="775" r="18" fill="white" fill-opacity="0.86"/>
  <circle cx="798" cy="740" r="16" fill="white" fill-opacity="0.52"/>
  <path d="M340 520L500 585" stroke="white" stroke-opacity="0.16" stroke-width="2"/>
  <path d="M1060 520L900 585" stroke="white" stroke-opacity="0.16" stroke-width="2"/>
  <path d="M340 880L500 815" stroke="white" stroke-opacity="0.16" stroke-width="2"/>
  <path d="M1060 880L900 815" stroke="white" stroke-opacity="0.16" stroke-width="2"/>
  <circle cx="340" cy="520" r="12" fill="white" fill-opacity="0.44"/>
  <circle cx="1060" cy="520" r="12" fill="white" fill-opacity="0.44"/>
  <circle cx="340" cy="880" r="12" fill="white" fill-opacity="0.44"/>
  <circle cx="1060" cy="880" r="12" fill="white" fill-opacity="0.44"/>
  <path d="M260 700H460" stroke="white" stroke-opacity="0.10" stroke-width="2"/>
  <path d="M940 700H1140" stroke="white" stroke-opacity="0.10" stroke-width="2"/>
  <circle cx="260" cy="700" r="10" fill="white" fill-opacity="0.32"/>
  <circle cx="1140" cy="700" r="10" fill="white" fill-opacity="0.32"/>
  <defs>
    <radialGradient id="coreGlow" cx="0" cy="0" r="1" gradientUnits="userSpaceOnUse" gradientTransform="translate(700 700) rotate(90) scale(470)">
      <stop stop-color="white" stop-opacity="0.22"/>
      <stop offset="0.48" stop-color="white" stop-opacity="0.06"/>
      <stop offset="1" stop-color="white" stop-opacity="0"/>
    </radialGradient>
    <linearGradient id="batteryBody" x1="700" y1="380" x2="700" y2="1020" gradientUnits="userSpaceOnUse">
      <stop stop-color="#222226"/>
      <stop offset="1" stop-color="#0C0C0F"/>
    </linearGradient>
    <filter id="shadow" x="390" y="280" width="620" height="820" filterUnits="userSpaceOnUse">
      <feDropShadow dx="0" dy="45" stdDeviation="55" flood-color="black" flood-opacity="0.55"/>
    </filter>
  </defs>
</svg>