<svg width="1200" height="900" viewBox="0 0 1200 900" fill="none" xmlns="http://www.w3.org/2000/svg">
<rect width="1200" height="900" rx="40" fill="#09090B"/>
<circle cx="600" cy="450" r="280" fill="url(#paint0_radial)"/>
<path d="M360 250L540 360L780 250L915 400L780 620L540 540L360 650L255 440L360 250Z" stroke="#F5F5F7" stroke-opacity="0.3" stroke-width="2"/>
<path d="M360 250L600 450L780 250" stroke="#F5F5F7" stroke-opacity="0.55" stroke-width="2"/>
<path d="M360 650L600 450L780 620" stroke="#F5F5F7" stroke-opacity="0.55" stroke-width="2"/>
<path d="M255 440L600 450L915 400" stroke="#F5F5F7" stroke-opacity="0.4" stroke-width="2"/>
<circle cx="360" cy="250" r="18" fill="#fff"/>
<circle cx="540" cy="360" r="14" fill="#fff" fill-opacity="0.88"/>
<circle cx="780" cy="250" r="16" fill="#fff" fill-opacity="0.74"/>
<circle cx="915" cy="400" r="18" fill="#fff" fill-opacity="0.62"/>
<circle cx="780" cy="620" r="16" fill="#fff" fill-opacity="0.82"/>
<circle cx="540" cy="540" r="14" fill="#fff" fill-opacity="0.96"/>
<circle cx="360" cy="650" r="16" fill="#fff" fill-opacity="0.7"/>
<circle cx="255" cy="440" r="18" fill="#fff" fill-opacity="0.52"/>
<circle cx="600" cy="450" r="28" fill="#fff"/>
<defs>
<radialGradient id="paint0_radial" cx="0" cy="0" r="1" gradientUnits="userSpaceOnUse" gradientTransform="translate(600 450) rotate(90) scale(320)">
<stop stop-color="white" stop-opacity="0.18"/>
<stop offset="1" stop-color="white" stop-opacity="0"/>
</radialGradient>
</defs>
</svg>